<mxfile host="Electron" agent="Mozilla/5.0 (Macintosh; Intel Mac OS X 10_15_7) AppleWebKit/537.36 (KHTML, like Gecko) draw.io/26.0.9 Chrome/128.0.6613.186 Electron/32.2.5 Safari/537.36" version="26.0.9">
  <diagram name="Page-1" id="IxxBUJ1OWtB2D4gqVUxz">
    <mxGraphModel dx="734" dy="538" grid="1" gridSize="10" guides="1" tooltips="1" connect="1" arrows="1" fold="1" page="1" pageScale="1" pageWidth="850" pageHeight="1100" math="0" shadow="0">
      <root>
        <mxCell id="0" />
        <mxCell id="1" parent="0" />
        <mxCell id="sm34zIC-MB-IUexv08lY-1" value="Thầy cô" style="swimlane;whiteSpace=wrap;html=1;" vertex="1" parent="1">
          <mxGeometry x="80" y="80" width="160" height="220" as="geometry" />
        </mxCell>
        <mxCell id="sm34zIC-MB-IUexv08lY-4" value="Nhập đề nguyên lí" style="rounded=1;whiteSpace=wrap;html=1;" vertex="1" parent="sm34zIC-MB-IUexv08lY-1">
          <mxGeometry x="20" y="50" width="120" height="40" as="geometry" />
        </mxCell>
        <mxCell id="sm34zIC-MB-IUexv08lY-16" value="Sử dụng" style="rounded=1;whiteSpace=wrap;html=1;" vertex="1" parent="sm34zIC-MB-IUexv08lY-1">
          <mxGeometry x="50" y="140" width="60" height="40" as="geometry" />
        </mxCell>
        <mxCell id="sm34zIC-MB-IUexv08lY-5" value="Bạn An có _x_ que kem" style="text;html=1;align=center;verticalAlign=middle;resizable=0;points=[];autosize=1;strokeColor=none;fillColor=none;fontStyle=2;fontSize=10;fontColor=#6666FF;shadow=1;" vertex="1" parent="sm34zIC-MB-IUexv08lY-1">
          <mxGeometry x="20" y="85" width="130" height="30" as="geometry" />
        </mxCell>
        <mxCell id="sm34zIC-MB-IUexv08lY-23" value="Bạn Bình có 4 con cua.&lt;div&gt;Gợi ý: ...&lt;/div&gt;" style="text;html=1;align=center;verticalAlign=middle;resizable=0;points=[];autosize=1;strokeColor=none;fillColor=none;fontStyle=2;fontSize=10;fontFamily=Helvetica;fontColor=#6666FF;" vertex="1" parent="sm34zIC-MB-IUexv08lY-1">
          <mxGeometry x="15" y="182" width="130" height="40" as="geometry" />
        </mxCell>
        <mxCell id="sm34zIC-MB-IUexv08lY-2" value="Phần mềm" style="swimlane;whiteSpace=wrap;html=1;" vertex="1" parent="1">
          <mxGeometry x="240" y="80" width="160" height="220" as="geometry" />
        </mxCell>
        <mxCell id="sm34zIC-MB-IUexv08lY-9" value="Tạo đề với số theo nguyên lí" style="rounded=1;whiteSpace=wrap;html=1;" vertex="1" parent="sm34zIC-MB-IUexv08lY-2">
          <mxGeometry x="35" y="50" width="110" height="40" as="geometry" />
        </mxCell>
        <mxCell id="sm34zIC-MB-IUexv08lY-20" value="Bạn An có 3 que kem" style="text;html=1;align=center;verticalAlign=middle;resizable=0;points=[];autosize=1;strokeColor=none;fillColor=none;fontStyle=2;fontSize=10;shadow=1;fontFamily=Helvetica;fontColor=#6666FF;" vertex="1" parent="sm34zIC-MB-IUexv08lY-2">
          <mxGeometry x="30" y="85" width="120" height="30" as="geometry" />
        </mxCell>
        <mxCell id="sm34zIC-MB-IUexv08lY-3" value="AI" style="swimlane;whiteSpace=wrap;html=1;" vertex="1" parent="1">
          <mxGeometry x="400" y="80" width="280" height="220" as="geometry" />
        </mxCell>
        <mxCell id="sm34zIC-MB-IUexv08lY-18" value="" style="edgeStyle=orthogonalEdgeStyle;rounded=0;orthogonalLoop=1;jettySize=auto;html=1;" edge="1" parent="sm34zIC-MB-IUexv08lY-3" source="sm34zIC-MB-IUexv08lY-13" target="sm34zIC-MB-IUexv08lY-15">
          <mxGeometry relative="1" as="geometry" />
        </mxCell>
        <mxCell id="sm34zIC-MB-IUexv08lY-13" value="Tạo đề với bối&amp;nbsp;&lt;div&gt;cảnh mới&lt;/div&gt;" style="shape=hexagon;perimeter=hexagonPerimeter2;whiteSpace=wrap;html=1;fixedSize=1;" vertex="1" parent="sm34zIC-MB-IUexv08lY-3">
          <mxGeometry x="40" y="40" width="110" height="60" as="geometry" />
        </mxCell>
        <mxCell id="sm34zIC-MB-IUexv08lY-15" value="Thêm gợi ý&amp;nbsp;&lt;div&gt;cách làm&lt;/div&gt;" style="shape=hexagon;perimeter=hexagonPerimeter2;whiteSpace=wrap;html=1;fixedSize=1;" vertex="1" parent="sm34zIC-MB-IUexv08lY-3">
          <mxGeometry x="40" y="130" width="110" height="60" as="geometry" />
        </mxCell>
        <mxCell id="sm34zIC-MB-IUexv08lY-21" value="Bạn Bình có 4 con cua" style="text;html=1;align=center;verticalAlign=middle;resizable=0;points=[];autosize=1;strokeColor=none;fillColor=none;fontStyle=2;fontSize=10;fontFamily=Helvetica;fontColor=#6666FF;" vertex="1" parent="sm34zIC-MB-IUexv08lY-3">
          <mxGeometry x="150" y="55" width="120" height="30" as="geometry" />
        </mxCell>
        <mxCell id="sm34zIC-MB-IUexv08lY-22" value="Gợi ý: ..." style="text;html=1;align=center;verticalAlign=middle;resizable=0;points=[];autosize=1;strokeColor=none;fillColor=none;fontStyle=2;fontSize=10;fontFamily=Helvetica;fontColor=#6666FF;" vertex="1" parent="sm34zIC-MB-IUexv08lY-3">
          <mxGeometry x="160" y="145" width="60" height="30" as="geometry" />
        </mxCell>
        <mxCell id="sm34zIC-MB-IUexv08lY-10" value="" style="edgeStyle=orthogonalEdgeStyle;rounded=0;orthogonalLoop=1;jettySize=auto;html=1;" edge="1" parent="1" source="sm34zIC-MB-IUexv08lY-4" target="sm34zIC-MB-IUexv08lY-9">
          <mxGeometry relative="1" as="geometry" />
        </mxCell>
        <mxCell id="sm34zIC-MB-IUexv08lY-17" style="edgeStyle=orthogonalEdgeStyle;rounded=0;orthogonalLoop=1;jettySize=auto;html=1;entryX=0;entryY=0.5;entryDx=0;entryDy=0;" edge="1" parent="1" source="sm34zIC-MB-IUexv08lY-9" target="sm34zIC-MB-IUexv08lY-13">
          <mxGeometry relative="1" as="geometry" />
        </mxCell>
        <mxCell id="sm34zIC-MB-IUexv08lY-19" style="edgeStyle=orthogonalEdgeStyle;rounded=0;orthogonalLoop=1;jettySize=auto;html=1;entryX=1;entryY=0.5;entryDx=0;entryDy=0;" edge="1" parent="1" source="sm34zIC-MB-IUexv08lY-15" target="sm34zIC-MB-IUexv08lY-16">
          <mxGeometry relative="1" as="geometry" />
        </mxCell>
      </root>
    </mxGraphModel>
  </diagram>
</mxfile>
